<svg xmlns="http://www.w3.org/2000/svg" viewBox="0 0 1080 1080"><defs><style>.cls-1{fill:#d07bb3;}.cls-1,.cls-2,.cls-4,.cls-5{stroke:#000;stroke-miterlimit:10;}.cls-2,.cls-3{fill:#fff;}.cls-4{fill:none;}</style></defs><g id="Layer_5_copy_2" data-name="Layer 5 copy 2"><line class="cls-1" x1="358.16" y1="403.83" x2="358.1" y2="403.88"/><line class="cls-2" x1="371.72" y1="703.66" x2="371.73" y2="703.58"/><path class="cls-2" d="M444.4,491.73l-.7-.06"/><path class="cls-2" d="M576.44,562.1c-17.09,2.63-2.84-31.13-12.58-39.91a105,105,0,0,1,9.35-9c8.2-6.84,10.09-16.86,6.37-26.43-2.86-7.37-6.42-15.08-13.19-19.15-5.12-3.09-11.33-3.62-17.29-4.07h0c11.79-13.59,25-31.9,4.94-46.36-10.09-7.26-28.56-9.83-40.67-7.27-8.81,1.86-22.11,6.14-31.26,9.11-1.61.52,11.48,10.46,24.39,23.52-7.85-7.66-16.4-15.26-23.18-21.28l-.82-.72h0c-.63-.58-.28-1.1-.85-1.69-5.6-5.77-9.49-11.69-11.15-12.31-8-3-13-1-27,2a123.37,123.37,0,0,0-26,9c-28,17-86.21,66.65-90.05,80.36-3.25,11.56-3.67,23.71-9,34.76-7.26,15.1-18.47,28.18-31.33,38.81a190.88,190.88,0,0,1-34.93,22.74c-12.88,6.57-25.75,9.56-36.22,20.3-2.9,3-7,4.36-10.56,6.24-2.8,1.46-5.54,3.47-6.53,6.6-2.08,6.56,4.36,13.43,7,18.86q6.21,12.57,12.55,25.08c12.42,24.4,25.35,48.48,40.14,71.56a47.79,47.79,0,0,0,5.54,7.07c1.79,1.89,4.41,4.3,7.29,4,4.69-.53,10.12-5.53,13.86-8.1,27.06-18.54,54.34-33.82,86.42-42l0-.09c19.61-5.32,39.15-9.48,58.13-17.54a289.63,289.63,0,0,0,59.31-34.05c7.66-5.69,17.45-9.92,24.15-16.7a53,53,0,0,1,4.2-4.28,17.45,17.45,0,0,1,5-2.76c7.74-2.9,18.57-7.8,25.89-10.1,15-4.72,19-12.72,38.11-18C586.59,600.24,619.5,555.5,576.44,562.1Z"/><path class="cls-3" d="M371.72,703.66h0Z"/><path d="M371.74,703.66h0Z"/><path class="cls-4" d="M371,452.53s11.37-6.61,17.69-6.94,8.58-5.51,15.82-6.2,9.84.44,9.84.44"/><path class="cls-4" d="M392.14,444.85s3.77,0,9.16.09,6.68.6,6.68.6"/><line class="cls-4" x1="371.72" y1="703.66" x2="371.92" y2="703.8"/><path class="cls-4" d="M345.93,648.47s-.57,1.3,0,5.39,4.95,9.87,6.61,11.37c1.29,1.17,4.91,9.92,7.13,15.48"/><path class="cls-4" d="M359.63,680.71c.63,1.57,1.14,2.89,1.47,3.71,1.46,3.72,9.2,12.5,12.15,14.56s9.28,1.74,9.28,1.74"/><line class="cls-4" x1="359.63" y1="680.71" x2="359.64" y2="680.69"/><path class="cls-4" d="M329.17,600.26s-.93.37-3-2.06a126.94,126.94,0,0,1-10.3-15.3c-3.48-6.15-2.51-11.9-3.77-17.85S316.37,543,316.37,543"/><path class="cls-4" d="M428.85,495.65c2.14,2.8,3.87,7.78,5.21,13.1"/><path class="cls-4" d="M434.06,508.75A142,142,0,0,1,437,524.67c1.06,8.18-2.11,38.43-1.62,47.9s4.14,18.79,5.6,22.51"/><path class="cls-4" d="M434.06,508.75v0"/><path class="cls-4" d="M434.06,508.75a223.74,223.74,0,0,1,.22,36.33c-1.61,17.82-25.72,41.24-25.72,41.24"/><path class="cls-4" d="M445.25,542.93c-4.93-16.76-2.1-34.35-1.31-51.45"/><path class="cls-4" d="M549.2,463.51l.21-.1"/><path class="cls-4" d="M537.13,472.52c3.08-1.75,5.92-3.4,7.42-5.06a17,17,0,0,1,4.65-3.95"/><path class="cls-4" d="M456.8,534.21h0"/><path class="cls-4" d="M456.8,534.21c-4.21-.06-7-.85-8.52-4.78-2.26-5.78-4.65-15.1-2-21.12a6,6,0,0,0,.7-2.07,10.84,10.84,0,0,0-.16-1.61c-.23-2,.81-3.42,1.92-4.95l5.8-2.18"/><line class="cls-4" x1="466.26" y1="538.98" x2="460.34" y2="534.86"/><path class="cls-4" d="M456.8,534.21c-.26,2-.41,4.19,1.32,5.57a9.65,9.65,0,0,0,4.23,1.58,20.26,20.26,0,0,0,7.1.46,10.34,10.34,0,0,1,2.34-.29c2.72.18,4.71,3.34,7.42,3.07"/><path class="cls-4" d="M456.8,534.21s0-.08,0-.12"/><path class="cls-4" d="M479.22,544.64v.05a41.37,41.37,0,0,1,5.52.59,51.61,51.61,0,0,0,5.56.42,74,74,0,0,0,11.13-.67c21.58-2.79,44.29-10.79,62.46-22.8l0-.08q-9.89,5.11-20.11,9.44c-3.41,1.44-6.71,3.17-10.15,4.55s-7.1,2.18-10.64,3.24a154.29,154.29,0,0,1-21.58,5.16,74.49,74.49,0,0,1-11.06.86,48.87,48.87,0,0,1-5.54-.32,42.7,42.7,0,0,0-5.54-.49v0"/><path class="cls-4" d="M473.18,532a157.28,157.28,0,0,1-5.92-15,14.45,14.45,0,0,1-.82-3.77,14.83,14.83,0,0,1,.44-3.56,13.07,13.07,0,0,1,1.48-4.37"/><line class="cls-4" x1="470.91" y1="537.16" x2="472.81" y2="541.72"/><path class="cls-4" d="M453.19,549.48l.4-4.45c.2-2.23-.53-10.93-.53-10.93"/><path class="cls-4" d="M449.23,563.82a6.6,6.6,0,0,1-.15-.85"/><path class="cls-4" d="M462.33,542.67s-7.44,2.92-9.34,9c-.15.47-.31.91-.47,1.33"/><path class="cls-4" d="M452.42,553l.1,0"/><path class="cls-4" d="M449.08,563c-.34-3.06,1.63-5.36,3.22-9.34.08-.19.15-.39.22-.59"/><path class="cls-4" d="M449.23,563.82c1.06,3.44,2.14,7,3.51,10.36,1.28,3.13,3.4,6.17,6.56,7.37"/><line class="cls-4" x1="465.82" y1="548.82" x2="462.83" y2="552.14"/><path class="cls-4" d="M499.25,586.12c-1.16,0-2.09,0-2.67,0"/><path class="cls-4" d="M489.81,587.53a54.72,54.72,0,0,1,6.77-1.36"/><path class="cls-4" d="M517.21,583.71c-2.37.34-4.74.63-7.14.85s-4.63.19-6.89.49c-.11,0-2.58.68-3.61,1.06-.33.12-.51.22-.42.25,1.81.65,9-.56,18.06-2.65"/><path class="cls-4" d="M567.59,568.3a8.41,8.41,0,0,0,.94-.58,8.81,8.81,0,0,0,1-.83c.33-.29.31-.3,0,0a8.84,8.84,0,0,1-1,.81l-.91.61"/><path class="cls-4" d="M567.59,568.3c-6.44,3.53-32.25,11.23-50.38,15.41"/><path class="cls-4" d="M567.59,568.3a62.45,62.45,0,0,1-8.05,4.71c-7.21,3.46-16.25,4.91-24,6.93a170.92,170.92,0,0,1-18.34,3.77"/><path class="cls-4" d="M473.07,589.58c-3.08-.07-5.8,0-7.71-.84-2.59-1.13-3.88-1.69-5-4.49l-1.1-2.79"/><path class="cls-4" d="M489.81,587.53c-4.78,1.11-10.57,2.47-13.31,2.22-1.18-.11-2.32-.15-3.43-.17"/><path class="cls-4" d="M476.64,568.21s2.52,11.9,5.48,14l7.69,5.36"/><line class="cls-4" x1="496.58" y1="586.17" x2="492.69" y2="584.47"/><path class="cls-4" d="M449.08,563l0-.06"/><path class="cls-4" d="M449.23,563.82c-.08-.48-.13-.75-.15-.85"/><path class="cls-4" d="M449.23,563.82c.17,1.12.45,3.36.65,7.36.33,6.32,5.85,14.9,5.85,14.9"/><line class="cls-4" x1="499.25" y1="586.12" x2="499.25" y2="586.12"/><line class="cls-4" x1="473.07" y1="589.58" x2="473.07" y2="589.58"/><line class="cls-4" x1="522.59" y1="628.32" x2="522.85" y2="628.5"/><path class="cls-4" d="M468.5,595.5s4,17,15,26,18,12,18,12"/><path class="cls-4" d="M534.5,595.5v-8c10,8,11,27,11,27"/><path class="cls-4" d="M583.5,563.5c11,8,15,26,15,26"/><path class="cls-2" d="M470.5,610.5c1,18-10,47-10,47"/><path class="cls-1" d="M490.56,502.58a19.33,19.33,0,0,0,4.55,5.36l7.94,7.11a15.66,15.66,0,0,0,4.5,3.18,11.25,11.25,0,0,0,6.48.31c6.1-1.27,11.18-5.46,15.44-10a34.7,34.7,0,0,0,7.45-11,22.59,22.59,0,0,0-1.56-18.64c-2.62-4.81-9.28-12.91-14.94-9a179.8,179.8,0,0,0-26.76,22.59c-1.77,1.82-3.6,3.87-3.85,6.4A6.75,6.75,0,0,0,490.56,502.58Z"/><path class="cls-4" d="M489.5,479.5c9-9,16-16,19-16"/><path class="cls-4" d="M490.5,471.5c4-6,13-12,18-13"/><path class="cls-4" d="M476.53,425.15c-8.87,7.16-17.34,3.5-23.7,17.42S441.78,463,441.78,463"/><path class="cls-4" d="M465.5,434.5c-3,4-14,17-15,24"/><path class="cls-4" d="M444.5,446.5c-4,7-10,14-10,18"/><path class="cls-1" d="M463.39,554.13a3.33,3.33,0,0,0-2.45-1,22.44,22.44,0,0,0-6.6.92,4.09,4.09,0,0,0-1.82.76,5.13,5.13,0,0,0-1.18,2.57c-.59,2-1.75,4-1.62,6.09a12,12,0,0,0,1.3,4c1,2.42,1.79,5,2.83,7.38a14.64,14.64,0,0,0,3.9,5.66,3.14,3.14,0,0,0,1.43.75,3.63,3.63,0,0,0,1.53-.16l5.71-1.4c1.51-.37,1-3.34,1-4.47a57.21,57.21,0,0,0-.32-6.41,64.2,64.2,0,0,0-2.74-12.7A5.27,5.27,0,0,0,463.39,554.13Z"/><path class="cls-1" d="M455.6,512a17,17,0,0,0-4.31-5.63,3,3,0,0,0-2.3-.9,2.93,2.93,0,0,0-1.85,1.73,12.21,12.21,0,0,0-1.14,3.27,24.71,24.71,0,0,0,.19,8.18,50.41,50.41,0,0,0,1.4,7.41,19.92,19.92,0,0,0,1.36,3.51c.29.58.67,1.11.95,1.69a3,3,0,0,0,2.35,1.71c1.1.27,2.21.54,3.32.79a7.35,7.35,0,0,0,2.94.3,1.35,1.35,0,0,0,1-.64,2,2,0,0,0,.16-.9,32.89,32.89,0,0,0-.4-4.31,84.44,84.44,0,0,0-1.94-11.75A25.87,25.87,0,0,0,455.6,512Z"/></g><g id="Layer_6" data-name="Layer 6"><path class="cls-3" d="M782.35,817.21c-10.77-8.16-19.35-19-27.64-29.49-6-7.61-12.26-15.48-19.31-22.33-3.44-3.35-7-7.12-10.77-11.12-13.69-14.51-29.2-30.95-44-30.95a20.52,20.52,0,0,0-2.37.14,13.3,13.3,0,0,1-1.68.1c-16.79,0-37.34-30.12-52.35-52.12-3.15-4.61-6.12-9-8.83-12.73-17.61-24.44-28.39-47.8-40.87-74.84-1.13-2.44-2.26-4.9-3.42-7.38-1.94-4.2-3.55-9.83-.14-12.79a10.11,10.11,0,0,1,5.28-1.89,55.5,55.5,0,0,1,21,1.15c.16,9.66,8.17,17.07,16.14,20.17a39.39,39.39,0,0,0,14.3,2.53,63.76,63.76,0,0,0,20.52-3.77,189.09,189.09,0,0,0,17.9-7.52c4.72-2.17,9.6-4.41,14.52-6.29a117.63,117.63,0,0,1,21.83-6l1.52-.26a91,91,0,0,1,15.08-1.75,29.86,29.86,0,0,1,5.61.48c3.48.68,7.17,4.17,10.13,7,.71.67,1.38,1.31,2,1.86,5.78,5.15,8.92,10.29,9.59,15.72.11.87.17,1.79.22,2.68.17,2.86.34,5.82,2.26,8a12.74,12.74,0,0,0,4.75,2.94c.6.26,1.19.51,1.77.8,9.24,4.6,11.9,16.6,11.3,26.29-.23,3.74-.81,7.54-1.37,11.22-1,6.42-2,13.06-1.19,19.62,2.15,17.6,16.42,30.94,30.86,43.09l52.95,44.57a4.56,4.56,0,0,1,1.9,2.54c.17,1.22-.78,2.38-1.69,3.38C827.16,773.33,805,795.84,782.35,817.21Z"/><path d="M719.05,560.62a29.83,29.83,0,0,1,5.52.47c3.34.65,7,4.09,9.87,6.85.72.67,1.39,1.31,2,1.87,5.68,5.07,8.77,10.11,9.43,15.41.1.85.16,1.73.21,2.65.17,2.94.35,6,2.39,8.3a13,13,0,0,0,4.92,3.07c.61.26,1.19.51,1.75.79,9,4.49,11.61,16.28,11,25.81-.23,3.72-.81,7.51-1.36,11.17-1,6.46-2,13.13-1.19,19.76,2.16,17.78,16.52,31.2,31,43.41l52.94,44.57a4.27,4.27,0,0,1,1.74,2.23c.14,1-.74,2.06-1.57,3-20.87,22.92-42.89,45.33-65.45,66.61-10.56-8.1-19-18.8-27.22-29.15-6-7.62-12.28-15.51-19.35-22.38-3.44-3.34-7-7.11-10.76-11.1-13.75-14.58-29.34-31.11-44.35-31.11a21.58,21.58,0,0,0-2.43.14,12.36,12.36,0,0,1-1.62.1c-16.52,0-37-30-51.94-51.9-3.15-4.62-6.12-9-8.84-12.74C598.24,634,587.47,610.69,575,583.66l-3.41-7.39c-1.88-4-3.44-9.43-.27-12.19a9.54,9.54,0,0,1,5-1.77,54.9,54.9,0,0,1,20.42,1c.37,9.71,8.43,17.13,16.45,20.24a39.66,39.66,0,0,0,14.48,2.57,64.31,64.31,0,0,0,20.69-3.8,192.56,192.56,0,0,0,17.94-7.53c4.71-2.17,9.58-4.41,14.49-6.28a116.67,116.67,0,0,1,21.74-5.93l1.51-.26a90.28,90.28,0,0,1,15-1.74m0-1c-5.59,0-11.62,1.15-16.68,2a117.13,117.13,0,0,0-21.92,6c-11,4.18-21.3,10-32.41,13.8a63.5,63.5,0,0,1-20.36,3.74,38.69,38.69,0,0,1-14.12-2.5c-8.45-3.28-15.87-11-15.83-20.09a55.56,55.56,0,0,0-13.94-1.77,55,55,0,0,0-7.59.52,10.43,10.43,0,0,0-5.54,2c-3.63,3.15-2,9,0,13.38,13.84,29.85,25.1,55.6,44.33,82.3,16,22.27,41.08,65.06,61.59,65.06a14.38,14.38,0,0,0,1.74-.1,17.8,17.8,0,0,1,2.31-.14c18.52,0,38.22,26.2,54.41,41.93,16.88,16.38,28.52,38,47.34,52.11q34.33-32.33,66.12-67.24c1-1.07,2-2.35,1.82-3.78a5.07,5.07,0,0,0-2.08-2.86l-53-44.56c-13.76-11.59-28.51-24.91-30.68-42.77-1.25-10.24,1.92-20.46,2.56-30.75s-2.34-22.17-11.58-26.77c-2.2-1.09-4.74-1.77-6.36-3.62-2.4-2.72-1.91-6.81-2.36-10.41-.81-6.51-5-11.8-9.75-16-3.28-2.93-7.9-8.09-12.37-9a30.2,30.2,0,0,0-5.71-.49Z"/><path class="cls-3" d="M593.91,594.82a34.68,34.68,0,0,1-10.26-1.49c-4.23-1.31-7.25-3.33-8.95-6-3.17-5-1.34-11.69,2.1-15.75,3.94-4.64,10-7.14,14.76-8.79,3.6-1.24,7.42-2.34,11.69-3.37,5.75-1.38,11.44-2.41,16.26-3.23a45.7,45.7,0,0,1,7.71-.86,20.71,20.71,0,0,1,2.68.17c3.79.52,6.9,2.31,8.54,4.92,2.18,3.49,1.56,18.17-.4,21.72-3.74,6.77-11.3,7.62-19.3,8.52a60,60,0,0,0-11.17,2A45.26,45.26,0,0,1,593.91,594.82Z"/><path d="M627.22,555.82h0a19.62,19.62,0,0,1,2.61.17c3.65.49,6.63,2.2,8.18,4.69,2.07,3.3,1.45,17.84-.41,21.21-3.61,6.55-11.05,7.38-18.91,8.26a59.71,59.71,0,0,0-11.27,2,45.2,45.2,0,0,1-13.51,2.18,34.32,34.32,0,0,1-10.11-1.47c-4.12-1.28-7-3.23-8.68-5.8-3-4.76-1.26-11.23,2.07-15.16,3.85-4.55,9.79-7,14.53-8.64,3.59-1.24,7.4-2.33,11.65-3.35,5.74-1.38,11.42-2.4,16.22-3.23a45.9,45.9,0,0,1,7.63-.85m0-1a46.68,46.68,0,0,0-7.8.87c-5.45.93-10.9,1.95-16.28,3.24-4,1-7.89,2.05-11.74,3.37-5.57,1.92-11.17,4.45-15,9s-5.31,11.38-2.14,16.34c2,3.19,5.6,5.09,9.22,6.21a35,35,0,0,0,10.41,1.52,46.08,46.08,0,0,0,13.81-2.23c10.73-3.39,25-.39,30.76-10.72,2.06-3.74,2.65-18.6.38-22.22-1.88-3-5.38-4.68-8.89-5.15a19.54,19.54,0,0,0-2.75-.18Z"/><path class="cls-1" d="M587,571.25a2.84,2.84,0,0,0-2.19-1.17,3.87,3.87,0,0,0-2.79,2c-3,4.28-5.84,10.35-1.47,14.87,1.23,1.28,13.24,6.06,12.63,1.79a47.42,47.42,0,0,0-5.18-16A8.16,8.16,0,0,0,587,571.25Z"/><path class="cls-1" d="M630.5,563.5c-1,4,0,13,0,13"/><path class="cls-1" d="M626.5,566.5c0,5,4,11,4,11"/><path class="cls-4" d="M662.5,688.5c6,4,10,12,21,15"/><path class="cls-4" d="M751.5,655.5s-2,11,3,16l5,5"/><path class="cls-4" d="M748.5,595.5c3.09,6.17,6.45,11.1,3,18"/><path class="cls-5" d="M719.5,565.5a10.8,10.8,0,0,0-8,4"/><path class="cls-4" d="M701.5,692.5c2,2,4,11,4,11"/><path class="cls-4" d="M598.5,604.5c16-3,21.14-9.18,21.14-9.18"/><path class="cls-4" d="M605.5,606.5c4-1,12-5,12-5"/><path class="cls-5" d="M721.64,559.71c-3.85-.79-29.14,3.79-33.12,5.17-7.73,2.68-15.24,6.11-22.84,9.14-8,3.17-20,7.2-28,10.3l.41.59a.85.85,0,0,0,1,.3,173,173,0,0,1,25.62-8.54,5.2,5.2,0,0,0,.67-.21,12.39,12.39,0,0,0,2.3-1.87c.82-.68,1.66-1.33,2.53-1.94a29.35,29.35,0,0,1,5.53-3.15c4.72-2,13.72-2,13.72-2a5,5,0,0,1,2.5-2.1,36.42,36.42,0,0,1,11.11-3.19c1.18-.17,2.37-.33,3.56-.4a4.31,4.31,0,0,1,1.64,0s-3.47-1.87,9.73-2a22.32,22.32,0,0,1,4.46.49c1.45.28,3,0,4.35.55a1.45,1.45,0,0,1,.55.32"/><path class="cls-5" d="M692.5,576.5c3-2,7-4,11-4"/><path class="cls-5" d="M671.5,583.5c7-4,14-6,15-6"/><path class="cls-5" d="M646.5,595.5c8-6,18-9,19-9"/><line class="cls-3" x1="510" y1="430" x2="508" y2="444"/><path d="M510.49,430.07a23.13,23.13,0,0,1-.2,3.54,21.79,21.79,0,0,1-.66,3.48,19,19,0,0,0-.78,3.46c-.11,1.17-.26,2.34-.36,3.52l-1-.14c.23-1.16.42-2.32.64-3.48a18.16,18.16,0,0,0,.22-3.54,22.93,22.93,0,0,1,.34-3.52,24.42,24.42,0,0,1,.8-3.46Z"/><path class="cls-4" d="M457.5,486.5a212.15,212.15,0,0,1,18,13c8.67,6.94,16.6,14.78,25.06,22,1.92,1.63,3.95,3.3,6.39,3.88a13.63,13.63,0,0,0,7-.61c14-4.21,28.37-18.51,28.92-33.8.3-8.21-4.55-19.59-10.4-25.44-7.48-7.48-17-15.08-25-22"/><polyline points="502 438 508.5 436.5 507.5 443.5 506 442 505 441 502 438"/><path d="M501.89,437.51a18.63,18.63,0,0,0,3.35-.3c.55-.09,1.09-.22,1.63-.34a3.09,3.09,0,0,0,1.52-.86l.68-.71-.08,1.27c-.06,1.18-.19,2.35-.32,3.53l-.22,1.75a3.8,3.8,0,0,1-.45,1.72l-.49.65-.36-.37-5.5-5.5.7-.7,5.5,5.5-.84.28a3.57,3.57,0,0,1,0-1.78l.28-1.75c.2-1.16.41-2.32.68-3.47l.6.56a3.05,3.05,0,0,0-1.73-.11c-.54.13-1.09.25-1.62.41a18.54,18.54,0,0,0-3.15,1.2Z"/></g></svg>